<svg width="215" height="37" viewBox="0 0 215 37" fill="none" xmlns="http://www.w3.org/2000/svg">
<g id="logo_banzzac" clip-path="url(#clip0_208_6923)">
<path id="Vector" d="M20.5747 36.1292H1.05597C0.77591 36.1292 0.507324 36.0168 0.309292 35.8167C0.111261 35.6166 0 35.3452 0 35.0622V1.06221C-1.40455e-06 0.922319 0.0273519 0.783801 0.080477 0.654617C0.133602 0.525432 0.211464 0.408122 0.309581 0.309425C0.407699 0.210727 0.524138 0.132586 0.652226 0.0794879C0.780314 0.0263895 0.917522 -0.000619374 1.05597 1.07776e-05H18.548C21.9827 1.07776e-05 24.4308 0.673058 25.8924 2.01915C27.3541 3.36524 28.0849 5.32537 28.0849 7.89953C28.0849 10.496 27.624 12.4944 26.7022 13.8947C25.8228 15.2607 24.4728 16.2479 22.914 16.6651V17.0048C27.5261 17.8086 29.8306 20.9872 29.8274 26.5407C29.8274 29.4306 29.073 31.7512 27.564 33.5024C26.055 35.2536 23.7253 36.1292 20.5747 36.1292ZM15.0913 7.89953H12.52C12.382 7.89953 12.2453 7.92701 12.1178 7.98039C11.9902 8.03377 11.8743 8.11201 11.7767 8.21065C11.6791 8.30928 11.6017 8.42637 11.5488 8.55525C11.496 8.68412 11.4688 8.82225 11.4688 8.96174V12.2297C11.4688 12.3692 11.496 12.5073 11.5488 12.6362C11.6017 12.765 11.6791 12.8821 11.7767 12.9808C11.8743 13.0794 11.9902 13.1576 12.1178 13.211C12.2453 13.2644 12.382 13.2919 12.52 13.2919H14.9966C16.4598 13.2919 17.189 12.3971 17.189 10.5981C17.189 8.79906 16.4645 7.89953 15.0676 7.89953H15.0913ZM15.9247 21.7369H12.4964C12.2171 21.7381 11.9498 21.8511 11.7527 22.0511C11.5557 22.251 11.4451 22.5217 11.4451 22.8038V26.5981C11.4451 26.8803 11.5557 27.1509 11.7527 27.3509C11.9498 27.5508 12.2171 27.6638 12.4964 27.6651H15.8111C17.4337 27.6651 18.245 26.6699 18.245 24.6794C18.245 22.689 17.4716 21.7081 15.9247 21.7369Z" fill="white"/>
<path id="Vector_2" d="M47.3893 6.35903C56.5442 6.35903 61.1216 9.53765 61.1216 15.8949V35.0624C61.1222 35.2023 61.0955 35.3409 61.0429 35.4703C60.9904 35.5998 60.913 35.7174 60.8154 35.8166C60.7177 35.9157 60.6016 35.9944 60.4737 36.048C60.3459 36.1017 60.2088 36.1294 60.0703 36.1294H55.837C55.5585 36.1279 55.2916 36.0162 55.0936 35.8183L52.9011 33.5983C52.7094 33.4069 52.4526 33.2969 52.1832 33.2907C51.9139 33.2844 51.6523 33.3825 51.4522 33.5648C51.0391 33.9406 50.5973 34.283 50.131 34.5887C49.3444 35.1074 48.5065 35.542 47.6308 35.8853C46.7493 36.2362 45.84 36.5115 44.9128 36.7083C44.0344 36.8949 43.1396 36.9911 42.2421 36.9954C40.7729 37.0141 39.3074 36.8437 37.8809 36.4882C36.6873 36.201 35.5715 35.6504 34.6136 34.8758C33.6911 34.0913 32.9848 33.0793 32.5632 31.938C32.0499 30.5034 31.8073 28.9844 31.8482 27.4595C31.8482 20.5217 37.0285 17.0528 47.3893 17.0528H48.6252C48.9053 17.0528 49.1739 16.9404 49.3719 16.7403C49.5699 16.5402 49.6812 16.2688 49.6812 15.9858C49.6804 15.7133 49.5764 15.4515 49.3906 15.254C49.2048 15.0565 48.9513 14.9383 48.682 14.9236L48.0333 14.8853C47.5598 14.8518 47.0862 14.8375 46.6743 14.8375C43.3001 14.783 39.9346 15.2 36.6734 16.0767C36.5319 16.1163 36.3838 16.1253 36.2386 16.1033C36.0934 16.0812 35.9545 16.0285 35.8308 15.9487C35.7071 15.8688 35.6014 15.7635 35.5206 15.6397C35.4398 15.5158 35.3856 15.3762 35.3617 15.2298L34.3389 9.07673C34.2937 8.81847 34.3445 8.55242 34.4818 8.32981C34.6191 8.10719 34.833 7.94376 35.0824 7.87099C39.0985 6.80907 43.2383 6.30048 47.3893 6.35903ZM43.388 26.2059V27.5026C43.3874 27.6422 43.4141 27.7806 43.4667 27.9098C43.5194 28.039 43.5968 28.1563 43.6945 28.2551C43.7922 28.3538 43.9084 28.432 44.0362 28.4852C44.164 28.5384 44.301 28.5654 44.4392 28.5648H45.7698C47.3199 28.5648 48.3663 28.3957 48.9093 28.0576C48.9819 28.0117 49.0487 27.957 49.1082 27.8949C49.291 27.7114 49.4358 27.4929 49.5342 27.2522C49.6326 27.0115 49.6825 26.7534 49.6812 26.493V24.8136C49.6812 24.5306 49.5699 24.2592 49.3719 24.0591C49.1739 23.859 48.9053 23.7466 48.6252 23.7466H47.342C46.3226 23.6899 45.3022 23.8379 44.3398 24.182C43.7053 24.4659 43.388 25.1405 43.388 26.2059Z" fill="white"/>
<path id="Vector_3" d="M67.3247 7.22443H71.558C71.6961 7.22414 71.8329 7.25147 71.9605 7.30485C72.0881 7.35823 72.204 7.4366 72.3014 7.53544L74.2382 9.49238C74.4119 9.66608 74.6397 9.77381 74.8831 9.79735C75.1264 9.82089 75.3703 9.75879 75.5735 9.62156C78.7508 7.49028 82.4805 6.35504 86.2941 6.35841C88.9996 6.35841 91.1052 6.94373 92.611 8.11439C93.3518 8.68379 93.945 9.42603 94.34 10.2776C94.735 11.1292 94.92 12.0648 94.8792 13.0043V35.0618C94.8792 35.3447 94.7679 35.6161 94.5699 35.8162C94.3719 36.0163 94.1033 36.1287 93.8232 36.1287H84.4995C84.2194 36.1287 83.9508 36.0163 83.7528 35.8162C83.5548 35.6161 83.4435 35.3447 83.4435 35.0618V16.9517C83.4435 16.6696 83.3329 16.3989 83.1359 16.1989C82.9389 15.999 82.6715 15.886 82.3923 15.8847H81.6583C80.6553 15.8393 79.6524 15.9787 78.6988 16.2962C78.0311 16.5689 77.6996 17.1718 77.6996 18.1V35.0522C77.6996 35.3352 77.5884 35.6066 77.3904 35.8067C77.1923 36.0068 76.9237 36.1192 76.6437 36.1192H67.3247C67.1862 36.1192 67.0491 36.0915 66.9213 36.0379C66.7934 35.9842 66.6773 35.9055 66.5797 35.8064C66.482 35.7072 66.4047 35.5896 66.3521 35.4601C66.2996 35.3307 66.2728 35.1921 66.2734 35.0522V8.25793C66.2797 7.98082 66.3933 7.71725 66.5899 7.52396C66.7865 7.33067 67.0504 7.22311 67.3247 7.22443Z" fill="white"/>
<path id="Vector_4" d="M98.8828 30.7222C98.8814 30.48 98.9634 30.2449 99.1149 30.0572L110.072 16.2342L109.93 15.8945H101.838C101.577 15.8946 101.325 15.7967 101.132 15.6199C100.938 15.443 100.817 15.1998 100.791 14.9375L100.128 8.39209C100.114 8.24401 100.13 8.09449 100.176 7.95321C100.222 7.81193 100.298 7.68204 100.397 7.57198C100.496 7.46191 100.617 7.37411 100.752 7.31427C100.886 7.25443 101.032 7.22389 101.179 7.22462H124.946C125.225 7.22462 125.492 7.33653 125.689 7.53573C125.886 7.73493 125.997 8.00511 125.997 8.28682V12.6457C125.996 12.8852 125.916 13.1175 125.77 13.306L114.95 27.1194L115.144 27.4591H125.291C125.43 27.4584 125.567 27.4855 125.695 27.5386C125.823 27.5917 125.94 27.6698 126.038 27.7685C126.136 27.8672 126.214 27.9845 126.267 28.1137C126.32 28.2429 126.347 28.3814 126.347 28.5213V35.0619C126.347 35.3449 126.236 35.6163 126.038 35.8164C125.84 36.0165 125.571 36.1289 125.291 36.1289H99.9388C99.8001 36.1289 99.6628 36.1013 99.5347 36.0477C99.4066 35.9941 99.2902 35.9155 99.1921 35.8164C99.0941 35.7173 99.0163 35.5997 98.9632 35.4703C98.9101 35.3408 98.8828 35.2021 98.8828 35.0619V30.7222Z" fill="white"/>
<path id="Vector_5" d="M129.207 30.7222C129.206 30.48 129.288 30.2449 129.439 30.0572L140.411 16.2342L140.264 15.8945H132.162C131.901 15.8947 131.648 15.797 131.454 15.6202C131.26 15.4435 131.138 15.2002 131.111 14.9375L130.467 8.39209C130.452 8.24441 130.468 8.0953 130.514 7.95435C130.56 7.8134 130.635 7.68375 130.734 7.57375C130.832 7.46376 130.952 7.37586 131.087 7.31573C131.221 7.25559 131.366 7.22456 131.513 7.22462H155.279C155.418 7.22399 155.555 7.25103 155.682 7.30418C155.81 7.35734 155.926 7.43556 156.024 7.53432C156.122 7.63308 156.199 7.75043 156.252 7.87959C156.305 8.00875 156.331 8.14715 156.331 8.28682V12.6457C156.332 12.8856 156.252 13.1186 156.103 13.306L145.274 27.1289L145.463 27.4686H155.611C155.749 27.468 155.887 27.495 156.015 27.5481C156.143 27.6012 156.259 27.6794 156.357 27.7781C156.455 27.8768 156.533 27.9941 156.586 28.1232C156.64 28.2524 156.667 28.3909 156.667 28.5308V35.0715C156.667 35.3545 156.556 35.6259 156.358 35.826C156.16 36.0261 155.891 36.1385 155.611 36.1385H130.258C130.12 36.1385 129.983 36.1109 129.855 36.0572C129.727 36.0035 129.611 35.9248 129.513 35.8257C129.416 35.7265 129.338 35.6089 129.286 35.4795C129.233 35.35 129.206 35.2114 129.207 35.0715V30.7222Z" fill="white"/>
<path id="Vector_6" d="M174.495 6.35896C183.65 6.35896 188.227 9.53759 188.227 15.8948V35.0623C188.228 35.2022 188.201 35.3408 188.148 35.4703C188.096 35.5997 188.019 35.7174 187.921 35.8165C187.823 35.9156 187.707 35.9943 187.579 36.048C187.451 36.1017 187.314 36.1293 187.176 36.1293H182.942C182.664 36.1278 182.397 36.0162 182.199 35.8183L180.007 33.5982C179.815 33.4069 179.558 33.2968 179.289 33.2906C179.019 33.2844 178.758 33.3824 178.558 33.5647C178.145 33.9405 177.703 34.2829 177.237 34.5886C176.45 35.1074 175.612 35.5419 174.736 35.8853C173.855 36.2362 172.946 36.5115 172.018 36.7082C171.14 36.8948 170.245 36.991 169.348 36.9953C167.878 37.0141 166.413 36.8436 164.986 36.4882C163.793 36.201 162.677 35.6503 161.719 34.8757C160.797 34.0913 160.09 33.0793 159.669 31.9379C159.155 30.5034 158.913 28.9843 158.954 27.4594C158.954 20.5216 164.134 17.0527 174.495 17.0527H175.731C176.011 17.0527 176.279 16.9403 176.477 16.7402C176.675 16.5401 176.787 16.2687 176.787 15.9858C176.786 15.7133 176.682 15.4514 176.496 15.2539C176.31 15.0564 176.057 14.9382 175.788 14.9236L175.139 14.8853C174.665 14.8518 174.192 14.8374 173.78 14.8374C170.407 14.7833 167.043 15.2004 163.784 16.0767C163.642 16.1162 163.494 16.1253 163.349 16.1032C163.204 16.0812 163.065 16.0285 162.941 15.9486C162.817 15.8687 162.712 15.7635 162.631 15.6396C162.55 15.5158 162.496 15.3761 162.472 15.2298L161.449 9.07666C161.404 8.8184 161.455 8.55235 161.592 8.32974C161.729 8.10713 161.943 7.9437 162.193 7.87093C166.207 6.80944 170.345 6.30085 174.495 6.35896ZM170.493 26.2059V27.5025C170.493 27.6422 170.52 27.7806 170.572 27.9097C170.625 28.0389 170.702 28.1562 170.8 28.255C170.898 28.3538 171.014 28.432 171.142 28.4851C171.27 28.5383 171.406 28.5653 171.545 28.5647H172.875C174.422 28.5647 175.469 28.3956 176.015 28.0575C176.087 28.0116 176.154 27.957 176.214 27.8948C176.396 27.7113 176.541 27.4928 176.64 27.2521C176.738 27.0114 176.788 26.7533 176.787 26.4929V24.8135C176.787 24.5305 176.675 24.2591 176.477 24.059C176.279 23.8589 176.011 23.7465 175.731 23.7465H174.471C173.452 23.6899 172.431 23.8379 171.469 24.1819C170.819 24.4658 170.493 25.1405 170.493 26.2059Z" fill="white"/>
<path id="Vector_7" d="M214.471 28.8082L215.002 34.9756C215.022 35.2167 214.961 35.4575 214.828 35.6591C214.696 35.8606 214.5 36.011 214.272 36.0857C212.04 36.7438 209.721 37.0504 207.397 36.9948C202.055 36.9948 198.193 35.7348 195.809 33.2149C193.426 30.6949 192.234 26.848 192.234 21.6742C192.234 16.5067 193.426 12.6614 195.809 10.1383C198.193 7.61518 202.055 6.35521 207.397 6.3584C210.285 6.3584 212.568 6.64867 214.244 7.22921C214.478 7.31283 214.675 7.4784 214.8 7.69601C214.924 7.91362 214.967 8.16893 214.921 8.41582L213.875 14.3632C213.824 14.6402 213.667 14.8858 213.438 15.047C213.21 15.2082 212.928 15.2719 212.653 15.2244C212.047 15.1192 211.483 15.0283 210.972 14.9565C207.562 14.478 204.537 14.8799 202.728 17.9517C201.231 20.4876 201.141 24.4493 203.201 26.6933C204.74 28.3632 206.691 28.5641 208.813 28.5641C210.266 28.554 211.71 28.3267 213.098 27.8895C213.249 27.8399 213.408 27.8253 213.565 27.8468C213.722 27.8683 213.872 27.9254 214.004 28.0137C214.136 28.102 214.247 28.2194 214.328 28.3569C214.409 28.4945 214.458 28.6487 214.471 28.8082Z" fill="white"/>
</g>
<defs>
<clipPath id="clip0_208_6923">
<rect width="215" height="37" fill="white"/>
</clipPath>
</defs>
</svg>
